<svg width="1000" height="1000" xmlns="http://www.w3.org/2000/svg" xmlns:xlink="http://www.w3.org/1999/xlink" version="1.1" baseProfile="full" viewBox="0 0 1000 1000">
<rect width="1000" height="1000" x="0" y="0" id="0" fill="none"></rect>
<path d="M100 930.5L900 930.5" fill="none" stroke="#E0E6F1"></path>
<path d="M100 756.5L900 756.5" fill="none" stroke="#E0E6F1"></path>
<path d="M100 582.5L900 582.5" fill="none" stroke="#E0E6F1"></path>
<path d="M100 408.5L900 408.5" fill="none" stroke="#E0E6F1"></path>
<path d="M100 234.5L900 234.5" fill="none" stroke="#E0E6F1"></path>
<path d="M100 60.5L900 60.5" fill="none" stroke="#E0E6F1"></path>
<path d="M100.5 60L100.5 930" fill="none" stroke="#E0E6F1"></path>
<path d="M260.5 60L260.5 930" fill="none" stroke="#E0E6F1"></path>
<path d="M420.5 60L420.5 930" fill="none" stroke="#E0E6F1"></path>
<path d="M580.5 60L580.5 930" fill="none" stroke="#E0E6F1"></path>
<path d="M740.5 60L740.5 930" fill="none" stroke="#E0E6F1"></path>
<path d="M900.5 60L900.5 930" fill="none" stroke="#E0E6F1"></path>
<path d="M100.5 930L100.5 60" fill="none" stroke="#6E7079" stroke-linecap="round"></path>
<text dominant-baseline="central" text-anchor="middle" style="font-size:12px;font-family:sans-serif;" xml:space="preserve" y="-6" transform="translate(100 45)" fill="#6E7079">CPU Usage (%)</text>
<path d="M100 930.5L900 930.5" fill="none" stroke="#6E7079" stroke-linecap="round"></path>
<text dominant-baseline="central" text-anchor="start" style="font-size:12px;font-family:sans-serif;" xml:space="preserve" transform="translate(915 930)" fill="#6E7079">Time (s)</text>
<path d="M100 930.5L95 930.5" fill="none" stroke="#6E7079"></path>
<path d="M100 756.5L95 756.5" fill="none" stroke="#6E7079"></path>
<path d="M100 582.5L95 582.5" fill="none" stroke="#6E7079"></path>
<path d="M100 408.5L95 408.5" fill="none" stroke="#6E7079"></path>
<path d="M100 234.5L95 234.5" fill="none" stroke="#6E7079"></path>
<path d="M100 60.5L95 60.5" fill="none" stroke="#6E7079"></path>
<path d="M100.5 930L100.5 935" fill="none" stroke="#6E7079"></path>
<path d="M260.5 930L260.5 935" fill="none" stroke="#6E7079"></path>
<path d="M420.5 930L420.5 935" fill="none" stroke="#6E7079"></path>
<path d="M580.5 930L580.5 935" fill="none" stroke="#6E7079"></path>
<path d="M740.5 930L740.5 935" fill="none" stroke="#6E7079"></path>
<path d="M900.5 930L900.5 935" fill="none" stroke="#6E7079"></path>
<text dominant-baseline="central" text-anchor="end" style="font-size:12px;font-family:sans-serif;" transform="translate(92 930)" fill="#6E7079">0</text>
<text dominant-baseline="central" text-anchor="end" style="font-size:12px;font-family:sans-serif;" transform="translate(92 756)" fill="#6E7079">5</text>
<text dominant-baseline="central" text-anchor="end" style="font-size:12px;font-family:sans-serif;" transform="translate(92 582)" fill="#6E7079">10</text>
<text dominant-baseline="central" text-anchor="end" style="font-size:12px;font-family:sans-serif;" transform="translate(92 408)" fill="#6E7079">15</text>
<text dominant-baseline="central" text-anchor="end" style="font-size:12px;font-family:sans-serif;" transform="translate(92 234)" fill="#6E7079">20</text>
<text dominant-baseline="central" text-anchor="end" style="font-size:12px;font-family:sans-serif;" transform="translate(92 60)" fill="#6E7079">25</text>
<text dominant-baseline="central" text-anchor="middle" style="font-size:12px;font-family:sans-serif;" y="6" transform="translate(100 938)" fill="#6E7079">0</text>
<text dominant-baseline="central" text-anchor="middle" style="font-size:12px;font-family:sans-serif;" y="6" transform="translate(260 938)" fill="#6E7079">3</text>
<text dominant-baseline="central" text-anchor="middle" style="font-size:12px;font-family:sans-serif;" y="6" transform="translate(420 938)" fill="#6E7079">6</text>
<text dominant-baseline="central" text-anchor="middle" style="font-size:12px;font-family:sans-serif;" y="6" transform="translate(580 938)" fill="#6E7079">9</text>
<text dominant-baseline="central" text-anchor="middle" style="font-size:12px;font-family:sans-serif;" y="6" transform="translate(740 938)" fill="#6E7079">12</text>
<text dominant-baseline="central" text-anchor="middle" style="font-size:12px;font-family:sans-serif;" y="6" transform="translate(900 938)" fill="#6E7079">15</text>
<g clip-path="url(#zr0-c0)">
<path d="M153.3 88.8L206.7 777.6L260 855.9L313.3 862.4L366.7 874.1L420 821.4L473.3 872L526.7 875L580 747.8L633.3 835.5L686.7 855.4L740 863.8L793.3 854.4L846.7 776.8L900 707.7" fill="none" stroke="#5470c6" stroke-width="2" stroke-linejoin="bevel"></path>
</g>
<path d="M1 0A1 1 0 1 1 1 -0.1A1 1 0 0 1 1 0" transform="matrix(2,0,0,2,153.3333,88.7834)" fill="#fff" stroke="#5470c6"></path>
<path d="M1 0A1 1 0 1 1 1 -0.1A1 1 0 0 1 1 0" transform="matrix(2,0,0,2,206.6667,777.5785)" fill="#fff" stroke="#5470c6"></path>
<path d="M1 0A1 1 0 1 1 1 -0.1A1 1 0 0 1 1 0" transform="matrix(2,0,0,2,260,855.857)" fill="#fff" stroke="#5470c6"></path>
<path d="M1 0A1 1 0 1 1 1 -0.1A1 1 0 0 1 1 0" transform="matrix(2,0,0,2,313.3333,862.386)" fill="#fff" stroke="#5470c6"></path>
<path d="M1 0A1 1 0 1 1 1 -0.1A1 1 0 0 1 1 0" transform="matrix(2,0,0,2,366.6667,874.0596)" fill="#fff" stroke="#5470c6"></path>
<path d="M1 0A1 1 0 1 1 1 -0.1A1 1 0 0 1 1 0" transform="matrix(2,0,0,2,420,821.3881)" fill="#fff" stroke="#5470c6"></path>
<path d="M1 0A1 1 0 1 1 1 -0.1A1 1 0 0 1 1 0" transform="matrix(2,0,0,2,473.3333,872.0375)" fill="#fff" stroke="#5470c6"></path>
<path d="M1 0A1 1 0 1 1 1 -0.1A1 1 0 0 1 1 0" transform="matrix(2,0,0,2,526.6667,875.0358)" fill="#fff" stroke="#5470c6"></path>
<path d="M1 0A1 1 0 1 1 1 -0.1A1 1 0 0 1 1 0" transform="matrix(2,0,0,2,580,747.7755)" fill="#fff" stroke="#5470c6"></path>
<path d="M1 0A1 1 0 1 1 1 -0.1A1 1 0 0 1 1 0" transform="matrix(2,0,0,2,633.3333,835.5099)" fill="#fff" stroke="#5470c6"></path>
<path d="M1 0A1 1 0 1 1 1 -0.1A1 1 0 0 1 1 0" transform="matrix(2,0,0,2,686.6667,855.403)" fill="#fff" stroke="#5470c6"></path>
<path d="M1 0A1 1 0 1 1 1 -0.1A1 1 0 0 1 1 0" transform="matrix(2,0,0,2,740,863.8075)" fill="#fff" stroke="#5470c6"></path>
<path d="M1 0A1 1 0 1 1 1 -0.1A1 1 0 0 1 1 0" transform="matrix(2,0,0,2,793.3333,854.3797)" fill="#fff" stroke="#5470c6"></path>
<path d="M1 0A1 1 0 1 1 1 -0.1A1 1 0 0 1 1 0" transform="matrix(2,0,0,2,846.6667,776.8441)" fill="#fff" stroke="#5470c6"></path>
<path d="M1 0A1 1 0 1 1 1 -0.1A1 1 0 0 1 1 0" transform="matrix(2,0,0,2,900,707.7151)" fill="#fff" stroke="#5470c6"></path>
<path d="M-5 -5l116.2 0l0 28l-116.2 0Z" transform="translate(5 5)" fill="rgb(0,0,0)" fill-opacity="0" stroke="#ccc" stroke-width="0"></path>
<text dominant-baseline="central" text-anchor="start" style="font-size:18px;font-family:sans-serif;font-weight:bold;" xml:space="preserve" y="9" transform="translate(5 5)" fill="#464646">CPU USAGE</text>
<defs >
<clipPath id="zr0-c0">
<path d="M99 59l802 0l0 872l-802 0Z" fill="#000"></path>
</clipPath>
</defs>
</svg>